<svg viewBox="0 0 100 100" fill="none" xmlns="http://www.w3.org/2000/svg">
  <!-- Circle background -->
  <circle cx="50" cy="50" r="48" fill="#6B6B6B"/>
  
  <!-- Nail/Foot shape (left side) -->
  <path d="M 20 30 Q 18 35 18 42 L 18 60 Q 18 68 24 72 Q 28 75 35 75 L 40 75 Q 45 75 48 72 Q 52 68 52 62 L 52 42 Q 52 35 50 30 Z" fill="white"/>
  
  <!-- Nail polish bottle (right side) -->
  <!-- Bottle cap -->
  <rect x="58" y="22" width="18" height="8" rx="2" fill="white"/>
  
  <!-- Bottle neck -->
  <rect x="60" y="30" width="14" height="6" fill="white"/>
  
  <!-- Bottle body -->
  <path d="M 58 36 L 58 58 Q 58 62 62 64 L 72 64 Q 76 62 76 58 L 76 36 Z" fill="white"/>
  
  <!-- Brush handle -->
  <rect x="65" y="30" width="4" height="18" fill="white"/>
  
  <!-- Brush bristles -->
  <ellipse cx="67" cy="49" rx="3" ry="5" fill="white"/>
</svg>
